<?xml version="1.0" encoding="utf-8"?>
<!-- Generator: Adobe Illustrator 13.0.3, SVG Export Plug-In . SVG Version: 6.00 Build 14948)  -->
<!DOCTYPE svg PUBLIC "-//W3C//DTD SVG 1.1//EN" "http://www.w3.org/Graphics/SVG/1.1/DTD/svg11.dtd">
<svg version="1.1"
	 id="Layer_1" xmlns:cc="http://creativecommons.org/ns#" xmlns:dc="http://purl.org/dc/elements/1.1/" xmlns:svg="http://www.w3.org/2000/svg" xmlns:sodipodi="http://sodipodi.sourceforge.net/DTD/sodipodi-0.dtd" xmlns:inkscape="http://www.inkscape.org/namespaces/inkscape" xmlns:rdf="http://www.w3.org/1999/02/22-rdf-syntax-ns#"
	 xmlns="http://www.w3.org/2000/svg" xmlns:xlink="http://www.w3.org/1999/xlink" x="0px" y="0px" width="488px" height="428px"
	 viewBox="0 0 488 428" enable-background="new 0 0 488 428" xml:space="preserve">
<g>
	<g>
		<defs>
			<polygon id="SVGID_1_" points="-7931.194,-6197.994 -7922.646,-6197.994 -7931.194,-6189.446 			"/>
		</defs>
		<clipPath id="SVGID_2_">
			<use xlink:href="#SVGID_1_"  overflow="visible"/>
		</clipPath>
	</g>
</g>
<g>
	<g>
		<defs>
			<polygon id="SVGID_3_" points="-7931.194,-6197.994 -7922.646,-6197.994 -7931.194,-6189.446 			"/>
		</defs>
		<clipPath id="SVGID_4_">
			<use xlink:href="#SVGID_3_"  overflow="visible"/>
		</clipPath>
	</g>
</g>
<g>
	<defs>
		<polygon id="SVGID_5_" points="-7931.194,-6197.994 -7922.646,-6197.994 -7931.194,-6189.446 		"/>
	</defs>
	<clipPath id="SVGID_6_">
		<use xlink:href="#SVGID_5_"  overflow="visible"/>
	</clipPath>
</g>
<g>
	<defs>
		<polygon id="SVGID_7_" points="-7931.194,-6197.994 -7922.646,-6197.994 -7931.194,-6189.446 		"/>
	</defs>
	<clipPath id="SVGID_8_">
		<use xlink:href="#SVGID_7_"  overflow="visible"/>
	</clipPath>
</g>
<g>
	<defs>
		<polygon id="SVGID_9_" points="-7931.194,-6197.994 -7922.646,-6197.994 -7931.194,-6189.446 		"/>
	</defs>
	<clipPath id="SVGID_10_">
		<use xlink:href="#SVGID_9_"  overflow="visible"/>
	</clipPath>
</g>
<g>
	<defs>
		<polygon id="SVGID_11_" points="-7931.194,-6197.994 -7922.646,-6197.994 -7931.194,-6189.446 		"/>
	</defs>
	<clipPath id="SVGID_12_">
		<use xlink:href="#SVGID_11_"  overflow="visible"/>
	</clipPath>
</g>
<path id="path407-9_3_" fill="#1F2C5F" d="M218.102,181.521c0.103-12.628,10.564-22.777,23.365-22.675
	c12.789,0.096,23.082,10.42,22.978,23.032l-1.095,134.617c-0.105,12.619-10.562,22.771-23.359,22.678
	c-12.788-0.095-23.09-10.415-22.981-23.042L218.102,181.521L218.102,181.521z"/>
<path id="path407-9_1_" fill="#1F2C5F" d="M85.861,45.689c-8.979-9.002-8.855-23.476,0.269-32.333
	c9.111-8.853,23.79-8.733,32.756,0.258l95.714,95.951c8.969,8.998,8.852,23.469-0.263,32.331c-9.11,8.854-23.793,8.743-32.767-0.262
	L85.861,45.689L85.861,45.689z"/>
<path id="path407-9_2_" fill="#1F2C5F" d="M398.012,44.095l-95.709,95.944c-8.974,9.005-23.656,9.116-32.768,0.262
	c-9.115-8.86-9.232-23.333-0.264-32.331l95.715-95.951c8.968-8.991,23.646-9.11,32.758-0.258
	C406.867,20.62,406.992,35.093,398.012,44.095L398.012,44.095z"/>
</svg>
